<?xml version="1.0" encoding="UTF-8" standalone="no"?>
<svg
   xmlns:dc="http://purl.org/dc/elements/1.1/"
   xmlns:cc="http://creativecommons.org/ns#"
   xmlns:rdf="http://www.w3.org/1999/02/22-rdf-syntax-ns#"
   xmlns:svg="http://www.w3.org/2000/svg"
   xmlns="http://www.w3.org/2000/svg"
   xmlns:sodipodi="http://sodipodi.sourceforge.net/DTD/sodipodi-0.dtd"
   xmlns:inkscape="http://www.inkscape.org/namespaces/inkscape"
   inkscape:export-ydpi="82.285713"
   inkscape:export-xdpi="82.285713"
   inkscape:export-filename="/Users/martin/Documents/Projects/mapbox/icon/distillery-15.png"
   inkscape:version="1.1-dev (48d18c81, 2020-07-08)"
   sodipodi:docname="distillery-15.svg"
   id="svg831"
   version="1.1"
   width="21"
   height="21"
   viewBox="0 0 21 21">
  <defs
     id="defs835" />
  <sodipodi:namedview
     inkscape:current-layer="svg831"
     inkscape:window-maximized="1"
     inkscape:window-y="1105"
     inkscape:window-x="596"
     inkscape:cy="10.552338"
     inkscape:cx="11.67959"
     inkscape:zoom="31.936052"
     showgrid="false"
     id="namedview833"
     inkscape:window-height="942"
     inkscape:window-width="1680"
     inkscape:pageshadow="2"
     inkscape:pageopacity="0"
     guidetolerance="10"
     gridtolerance="10"
     objecttolerance="10"
     borderopacity="1"
     bordercolor="#666666"
     pagecolor="#ffffff" />
  <title
     id="title823">car-15.svg</title>
  <rect
     inkscape:export-ydpi="82.285713"
     inkscape:export-xdpi="82.285713"
     id="rect825"
     height="21"
     width="21"
     y="0"
     x="0"
     fill="none" />
  <path
     id="path889"
     d="m 15.575084,12.789293 -0.651111,-0.61868 0.180994,-0.170568 0.180994,-0.170559 0.657013,0.623567 0.657015,0.623575 -0.173123,0.165675 c -0.09523,0.09112 -0.179321,0.165678 -0.186896,0.165678 -0.0074,0 -0.306773,-0.278406 -0.664886,-0.618688 z"
     style="color:#000000;fill:#444444;stroke-width:0.0251265" />
  <path
     id="path887"
     d="m 11.392066,10.205217 c 0,-0.02425 -0.09919,-0.8038132 -0.220421,-1.7323674 -0.200639,-1.5367644 -0.217778,-1.7013866 -0.190984,-1.8343741 0.07256,-0.3601068 0.326102,-0.651884 0.696121,-0.801079 0.139757,-0.056352 0.150068,-0.056829 1.507275,-0.068983 l 1.366556,-0.01224 0.0076,-0.1407628 c 0.0068,-0.1272065 0.0021,-0.1430166 -0.05157,-0.1641794 C 14.474137,5.4383478 13.873113,5.3281444 13.171141,5.2063292 11.755971,4.9607489 11.61814,4.948533 11.237339,5.0349453 10.669472,5.1638046 10.134531,5.5660665 9.8705021,6.0627693 9.7102905,6.3641673 9.6951009,6.4451042 9.443385,8.3385723 9.3099448,9.3423483 9.2006837,10.182896 9.200582,10.206464 c -1.821e-4,0.04015 0.069111,0.0428 1.095638,0.0428 1.038233,0 1.095822,-0.0023 1.095822,-0.04409 z"
     style="color:#000000;fill:#444444;stroke-width:0.0251265" />
  <path
     id="path885"
     d="m 12.57813,12.003171 c 0,-0.0055 -0.02969,-0.09592 -0.06599,-0.202008 -0.116702,-0.341058 -0.377091,-0.731205 -0.634975,-0.951396 L 11.747463,10.739026 H 10.296255 8.845047 L 8.6961364,10.87982 c -0.1933478,0.182814 -0.3555646,0.392412 -0.4690125,0.606027 -0.1007005,0.189608 -0.1869879,0.41171 -0.1869879,0.481307 0,0.04351 0.08142,0.04514 2.268997,0.04514 1.247948,0 2.268997,-0.0039 2.268997,-0.009 z"
     style="color:#000000;fill:#444444;stroke-width:0.0251265" />
  <path
     id="path883"
     d="m 15.286783,15.417988 0.355625,-0.597718 -0.05135,-0.124606 C 15.455805,14.36748 15.17329,13.986795 14.841804,13.686059 14.361186,13.250017 13.815674,12.936875 13.003576,12.630845 L 12.694161,12.514246 H 10.296242 7.8983235 L 7.601807,12.627145 c -0.6185971,0.235535 -1.0393407,0.450523 -1.4640433,0.748066 -0.2609784,0.182837 -0.6321496,0.537457 -0.803161,0.767343 -0.1452931,0.195312 -0.3627701,0.592744 -0.3627701,0.662953 0,0.02322 0.1581345,0.307721 0.3514094,0.632348 l 0.3514098,0.590237 4.6282532,-0.006 4.628253,-0.006 z"
     style="color:#000000;fill:#444444;stroke-width:0.0251265" />
  <path
     id="path879"
     d="m 5.4089387,16.492917 c -0.041762,-0.0094 -0.175824,-0.21425 -0.5323727,-0.81363 L 4.400011,14.878176 4.457133,14.712375 c 0.2607442,-0.75685 0.9015697,-1.475187 1.7748535,-1.989544 0.2466387,-0.145271 0.741867,-0.380746 1.0275056,-0.488572 0.2034255,-0.07679 0.2126672,-0.08367 0.2274091,-0.169367 0.034454,-0.200294 0.1482261,-0.542123 0.2441943,-0.73368 C 7.9119756,10.970166 8.179486,10.646997 8.5467178,10.34589 L 8.6794304,10.237068 8.9151324,8.4373603 C 9.0447683,7.4475265 9.1627347,6.5770565 9.1772801,6.5029877 9.2731608,6.0147261 9.5674858,5.5095352 9.958371,5.1622937 c 0.457724,-0.40662 1.019377,-0.6327084 1.640134,-0.6602215 0.294282,-0.013039 0.309473,-0.010903 1.87579,0.2639229 l 1.579106,0.277074 V 5.626114 6.2091574 l -1.527706,1.822e-4 c -0.922173,7.3e-5 -1.563898,0.00969 -1.619014,0.024221 -0.179645,0.047388 -0.360852,0.2192458 -0.412168,0.3908835 -0.02063,0.068998 0.02007,0.4483265 0.199269,1.8566869 l 0.225192,1.769979 0.186162,0.145098 c 0.493305,0.38449 0.851965,0.951365 0.979585,1.548247 l 0.0457,0.213712 0.243588,0.08962 c 0.510183,0.187722 1.106333,0.514238 1.52608,0.835845 0.281116,0.21538 0.664202,0.603723 0.832482,0.843895 0.170707,0.243642 0.356931,0.607239 0.417463,0.815094 l 0.04281,0.147053 -0.45734,0.771169 c -0.251537,0.424143 -0.471555,0.78583 -0.488929,0.803746 -0.02604,0.02692 -0.886012,0.03327 -4.906708,0.03667 -2.6813142,0.0025 -4.9002348,-0.0016 -4.9309347,-0.0083 z"
     style="color:#000000;fill:#444444;stroke-width:0.0251265" />
  <metadata
     id="metadata867">
    <rdf:RDF>
      <cc:Work
         rdf:about="">
        <dc:title>car-15.svg</dc:title>
      </cc:Work>
    </rdf:RDF>
  </metadata>
</svg>
