<?xml version="1.0"?>
<svg xmlns="http://www.w3.org/2000/svg" viewBox="0 0 50 50" enable-background="new 0 0 50 50">
    <path style="text-indent:0;text-align:start;line-height:normal;text-transform:none;block-progression:tb;-inkscape-font-specification:Bitstream Vera Sans" d="M 42 0 L 42 1 L 27.5 1 C 24.412821 1 21.854551 3.3022244 21.5 6.375 L 21.5 6.40625 L 20.28125 18.25 C 17.801537 18.986572 16 21.275 16 24 C 16 25.525877 16.56643 26.88499 17.5 27.9375 C 13.559409 29.042626 10.755746 30.995478 8.84375 33.0625 C 7.3665446 34.659479 6.3997764 36.340537 5.8125 37.75 C 5.2252236 39.159463 5 40.233333 5 41 C 5 45.333333 7.15625 48.5625 7.15625 48.5625 L 7.46875 49 L 8 49 L 42 49 L 42.53125 49 L 42.84375 48.5625 C 42.84375 48.5625 45 45.333333 45 41 C 45 40.233333 44.774776 39.159463 44.1875 37.75 C 43.600224 36.340537 42.633455 34.659479 41.15625 33.0625 C 39.244254 30.995478 36.440591 29.042626 32.5 27.9375 C 33.43357 26.88499 34 25.525877 34 24 C 34 21.194047 32.094022 18.849917 29.5 18.1875 L 28.09375 7 L 42 7 L 42 8 L 44 8 L 44 6 L 44 2 L 44 1 L 44 0 L 42 0 z M 27.5 3 L 42 3 L 42 5 L 28.09375 5 C 26.948796 5 25.945611 6.0112502 26.125 7.21875 L 26.09375 7.21875 L 27.4375 18 L 22.3125 18 L 23.5 6.625 L 23.5 6.59375 C 23.757868 4.48316 25.397502 3 27.5 3 z M 22 20 L 28 20 C 30.27619 20 32 21.72381 32 24 C 32 25.492252 31.272386 26.641545 30.0625 27.40625 C 28.520911 27.14032 26.846167 27 25 27 C 23.153833 27 21.479089 27.14032 19.9375 27.40625 C 18.727614 26.641545 18 25.492252 18 24 C 18 21.72381 19.72381 20 22 20 z M 40.71875 28.28125 L 39.28125 29.71875 L 44.28125 34.71875 L 45.71875 33.28125 L 40.71875 28.28125 z M 25 29 C 32.667932 29 37.091911 31.631458 39.6875 34.4375 C 40.985295 35.840521 41.837276 37.284463 42.34375 38.5 C 42.850224 39.715537 43 40.766667 43 41 C 43 44.233128 41.711842 46.443918 41.375 47 L 8.625 47 C 8.2881576 46.443918 7 44.233128 7 41 C 7 40.766667 7.1497764 39.715537 7.65625 38.5 C 8.1627236 37.284463 9.0147054 35.840521 10.3125 34.4375 C 12.908089 31.631458 17.332068 29 25 29 z M 25 31 C 22.250421 31 20 33.250421 20 36 C 20 38.749579 22.250421 41 25 41 C 27.749579 41 30 38.749579 30 36 C 30 33.250421 27.749579 31 25 31 z M 25 33 C 26.668699 33 28 34.331301 28 36 C 28 37.668699 26.668699 39 25 39 C 23.331301 39 22 37.668699 22 36 C 22 34.331301 23.331301 33 25 33 z" overflow="visible" enable-background="accumulate" font-family="Bitstream Vera Sans"/>
</svg>
