<svg width="32" height="26" viewBox="0 0 32 26" xmlns="http://www.w3.org/2000/svg"><g fill="none" fill-rule="evenodd"><path d="M16 .477L.447 25.75h31.107L16 .477zM31.997 26h-.247v-.002H32l-.003.002z" stroke="#2A2A2A" stroke-width=".5" fill="#F90"/><path d="M17.371 23.31H14.63v-2.812h2.299c.175 0 .292.036.353.108.06.072.09.187.09.346v2.358zm-2.541-7.334l-.11-1.201a11.87 11.87 0 0 1-.051-1.093V8.966h2.662v4.716c0 .36-.017.725-.05 1.093-.034.368-.07.768-.111 1.2l-.323 3.116h-1.694l-.323-3.115z" fill="#2A2A2A"/></g></svg>