<svg width="32" height="26" viewBox="0 0 32 26" xmlns="http://www.w3.org/2000/svg"><g fill="none" fill-rule="evenodd"><path d="M14.242 18.923l-.166-1.186A7.828 7.828 0 0 1 14 16.658V12h4v4.658c0 .356-.025.716-.076 1.08l-.166 1.185L17.273 22h-2.546l-.485-3.077z" fill="#FFF"/><path d="M16 .477L.447 25.75h31.106L16 .477z" stroke="#2A2A2A" stroke-width=".5" fill="#C03"/><path d="M17.371 23.31H14.63v-2.69h2.299c.175 0 .292.035.353.104.06.07.09.18.09.331v2.255zm-2.576-7.517l-.114-1.17a11.054 11.054 0 0 1-.052-1.064V8.966h2.742v4.593c0 .352-.017.706-.052 1.065l-.114 1.17-.332 3.034h-1.746l-.332-3.035z" fill="#FFF"/></g></svg>